<svg width="309" height="314" viewBox="0 0 309 314" fill="none" xmlns="http://www.w3.org/2000/svg">
<path d="M166.26 147.246C144.977 125.965 135.311 79.1195 132.534 53.6462C132.468 53.0391 131.449 53.0322 131.374 53.6382C128.149 79.7218 118.073 127.418 98.2443 147.246C78.3459 167.143 30.9655 176.346 5.2927 179.006C4.68892 179.069 4.67581 180.054 5.27751 180.134C31.409 183.616 79.4433 193.939 98.2443 212.739C117.38 231.874 128.037 283.108 131.507 309.939C131.583 310.525 132.477 310.533 132.562 309.949C136.527 282.806 147.875 231.122 166.26 212.739C184.225 194.774 231.966 184.108 258.325 180.256C258.929 180.168 258.898 179.149 258.289 179.098C233.301 176.999 187.49 168.475 166.26 147.246Z" fill="black"/>
<path d="M257.538 50.3693C247.042 40.2522 241.912 18.7503 240.103 5.4437C240.021 4.8406 238.903 4.83402 238.814 5.43608C236.797 19.0379 231.522 40.9283 221.727 50.3693C211.916 59.8257 189.416 64.5223 175.496 66.1899C174.891 66.2623 174.878 67.3439 175.481 67.4318C189.632 69.4978 212.445 74.6616 221.727 83.608C231.36 92.8926 236.912 117.068 238.978 131.075C239.064 131.656 239.994 131.666 240.089 131.085C242.408 116.927 248.278 92.5336 257.538 83.608C266.37 75.0957 288.866 69.8122 303.107 67.5575C303.713 67.4617 303.681 66.3256 303.071 66.2612C289.516 64.8307 267.932 60.3877 257.538 50.3693Z" fill="black"/>
</svg>
