<svg width="313" height="315" viewBox="0 0 313 315" fill="none" xmlns="http://www.w3.org/2000/svg">
<path d="M197.118 117.528C171.596 92.0376 160.164 35.573 157.023 5.65634C156.959 5.0491 155.956 5.03865 155.883 5.64487C152.202 36.2911 140.253 93.7839 116.479 117.528C92.6334 141.345 35.4996 152.221 5.30108 155.238C4.697 155.298 4.67906 156.268 5.28108 156.346C36.0281 160.34 93.9523 172.586 116.479 195.085C139.348 217.926 152.002 279.389 156.013 310.947C156.087 311.532 156.973 311.54 157.057 310.955C161.656 279.025 175.15 217.026 197.118 195.085C218.656 173.574 276.286 160.9 307.306 156.47C307.911 156.383 307.879 155.381 307.27 155.333C277.892 152.998 222.587 142.965 197.118 117.528Z" fill="white"/>
<path d="M270.794 55.4148C262.439 47.341 258.229 30.4492 256.632 19.4588C256.545 18.8563 255.382 18.8473 255.288 19.4487C253.532 30.6778 249.226 47.8748 241.424 55.4148C233.602 62.9732 215.945 66.8332 204.479 68.3022C203.875 68.3796 203.857 69.4962 204.459 69.5885C216.112 71.3763 234.019 75.5889 241.424 82.7443C249.166 90.2257 253.694 109.466 255.467 121.072C255.555 121.653 256.502 121.661 256.599 121.081C258.577 109.352 263.349 89.9381 270.794 82.7443C277.824 75.9509 295.413 71.6586 307.121 69.717C307.726 69.6168 307.695 68.4355 307.087 68.365C295.933 67.0747 279.055 63.3971 270.794 55.4148Z" fill="white"/>
</svg>
