<svg width="259" height="262" viewBox="0 0 259 262" fill="none" xmlns="http://www.w3.org/2000/svg">
<path d="M164 96.5C142.891 75.3908 133.296 28.9377 130.535 3.64624C130.468 3.03921 129.448 3.03212 129.373 3.63814C126.168 29.5348 116.168 76.8318 96.5 96.5C76.7625 116.237 29.779 125.371 4.29177 128.017C3.688 128.08 3.67478 129.066 4.27646 129.146C30.2188 132.607 77.8508 142.851 96.5 161.5C115.484 180.484 126.059 231.301 129.507 257.938C129.583 258.524 130.477 258.532 130.562 257.948C134.502 231.001 145.762 179.738 164 161.5C181.82 143.68 229.158 133.096 255.325 129.268C255.93 129.179 255.898 128.16 255.29 128.109C230.481 126.019 185.057 117.557 164 96.5Z" fill="white" stroke="black" stroke-width="6"/>
</svg>
