<svg width="254" height="257" viewBox="0 0 254 257" fill="none" xmlns="http://www.w3.org/2000/svg">
<path d="M161 94.5C139.891 73.3908 130.296 26.9377 127.535 1.64624C127.468 1.03921 126.448 1.03212 126.373 1.63814C123.168 27.5348 113.168 74.8318 93.5 94.5C73.7625 114.237 26.779 123.371 1.29177 126.017C0.688 126.08 0.674782 127.066 1.27646 127.146C27.2188 130.607 74.8508 140.851 93.5 159.5C112.484 178.484 123.059 229.301 126.507 255.938C126.583 256.524 127.477 256.532 127.562 255.948C131.502 229.001 142.762 177.738 161 159.5C178.82 141.68 226.158 131.096 252.325 127.268C252.93 127.179 252.898 126.16 252.29 126.109C227.481 124.019 182.057 115.557 161 94.5Z" fill="black" stroke="black"/>
</svg>
