<svg width="253" height="256" viewBox="0 0 253 256" fill="none" xmlns="http://www.w3.org/2000/svg">
<path d="M161 93.5C139.891 72.3908 130.296 25.9377 127.535 0.646243C127.468 0.0392079 126.448 0.0321178 126.373 0.638136C123.168 26.5348 113.168 73.8318 93.5 93.5C73.7625 113.237 26.779 122.371 1.29177 125.017C0.688 125.08 0.674782 126.066 1.27646 126.146C27.2188 129.607 74.8508 139.851 93.5 158.5C112.484 177.484 123.059 228.301 126.507 254.938C126.583 255.524 127.477 255.532 127.562 254.948C131.502 228.001 142.762 176.738 161 158.5C178.82 140.68 226.158 130.096 252.325 126.268C252.93 126.179 252.898 125.16 252.29 125.109C227.481 123.019 182.057 114.557 161 93.5Z" fill="white"/>
</svg>
